<?xml version="1.0" encoding="UTF-8"?>
<svg id="Layer_1" xmlns="http://www.w3.org/2000/svg" viewBox="0 0 192.56 50.82">
  <defs>
    <style>
      .cls-1 {
        fill: #316094;
      }

      .cls-2 {
        fill: #636569;
      }
    </style>
  </defs>
  <path class="cls-2" d="M56.47,14.11v22.72h-3.98v-10.25h-10.34v10.25h-3.98V14.11h3.98v9.04h10.34v-9.04h3.98ZM34.19,36.83h-3.98V14.11h3.98v22.72ZM26.3,36.83h-4.2l-10.34-16.7h-.09v16.7h-3.79V14.11h4.2l10.37,16.74h.06V14.11h3.79v22.72ZM70.48,25.39L56.43,0H4.68C2.09,0,0,2.1,0,4.68v41.46c0,2.58,2.09,4.68,4.68,4.68h51.71l14.1-25.43Z"/>
  <path class="cls-2" d="M59.91,50.82l14.08-25.43L59.96,0h3.51c1.92,0,4.26,1.38,5.19,3.06l12.35,22.33-12.39,22.37c-.93,1.68-3.27,3.06-5.19,3.06h-3.52Z"/>
  <path class="cls-1" d="M59.91,50.82l14.08-25.43L59.96,0h3.52c1.92,0,4.26,1.38,5.19,3.06l12.34,22.33-12.38,22.37c-.93,1.68-3.27,3.06-5.19,3.06h-3.52Z"/>
  <path class="cls-2" d="M182.77,39.85h1.61v-4.3c0-1.07.69-1.92,1.76-1.92.95,0,1.4.49,1.43,1.64v4.59h1.61v-5.01c0-1.64-1-2.48-2.58-2.48-.96,0-1.79.49-2.19,1.16h-.03v-3.74h-1.61v10.08ZM177.58,33.75h1.22v4.31c.03,1.21.34,1.86,2.02,1.86.35,0,.69-.05,1.05-.08v-1.24c-.23.06-.45.06-.68.06-.72,0-.78-.34-.78-1v-3.9h1.46v-1.2h-1.46v-2.19h-1.61v2.19h-1.22v1.2ZM175.21,39.85h1.61v-10.08h-1.61v10.08ZM173.69,34.47c0-1.54-1.5-2.12-2.92-2.12-1.61,0-3.2.55-3.32,2.43h1.61c.07-.79.71-1.16,1.61-1.16.65,0,1.51.15,1.51.99,0,.95-1.03.82-2.19,1.03-1.36.15-2.81.45-2.81,2.27,0,1.43,1.19,2.13,2.5,2.13.86,0,1.89-.27,2.53-.89.13.66.59.89,1.24.89.27,0,.78-.1,1.02-.18v-1.12c-.17.03-.3.03-.39.03-.3,0-.38-.16-.38-.55v-3.76ZM172.08,37.4c0,1.02-1.1,1.39-1.81,1.39-.56,0-1.48-.21-1.48-.93,0-.85.62-1.1,1.31-1.22.71-.12,1.49-.11,1.98-.43v1.2ZM161.23,35.56c.04-1.09.81-1.94,1.92-1.94s1.78.92,1.84,1.94h-3.76ZM166.6,36.62c.27-2.19-1.14-4.26-3.45-4.26-2.17,0-3.53,1.78-3.53,3.85,0,2.25,1.29,3.84,3.57,3.84,1.6,0,2.95-.89,3.3-2.49h-1.52c-.28.81-.85,1.22-1.78,1.22-1.34,0-1.96-1.02-1.96-2.16h5.37ZM150.22,39.85h1.76v-4.54h4.59v4.54h1.76v-10.08h-1.76v4.01h-4.59v-4.01h-1.76v10.08ZM143.26,39.85h1.61v-10.08h-1.61v10.08ZM141.73,34.47c0-1.54-1.5-2.12-2.92-2.12-1.61,0-3.21.55-3.32,2.43h1.61c.07-.79.71-1.16,1.61-1.16.65,0,1.51.15,1.51.99,0,.95-1.03.82-2.19,1.03-1.35.15-2.8.45-2.8,2.27,0,1.43,1.18,2.13,2.5,2.13.86,0,1.89-.27,2.53-.89.13.66.59.89,1.24.89.27,0,.78-.1,1.02-.18v-1.12c-.17.03-.3.03-.4.03-.3,0-.38-.16-.38-.55v-3.76ZM140.13,37.4c0,1.02-1.1,1.39-1.81,1.39-.57,0-1.48-.21-1.48-.93,0-.85.62-1.1,1.31-1.22.71-.12,1.48-.11,1.98-.43v1.2ZM130.44,33.75h1.21v4.31c.03,1.21.34,1.86,2.02,1.86.35,0,.69-.05,1.04-.08v-1.24c-.22.06-.45.06-.68.06-.72,0-.78-.34-.78-1v-3.9h1.46v-1.2h-1.46v-2.19h-1.61v2.19h-1.21v1.2ZM123.32,39.85h1.61v-4.3c0-1.07.69-1.92,1.77-1.92.95,0,1.4.49,1.43,1.64v4.59h1.61v-5.01c0-1.64-1-2.48-2.58-2.48-.96,0-1.79.49-2.28,1.3l-.03-.03v-1.07h-1.52v7.3ZM116.98,35.56c.04-1.09.8-1.94,1.92-1.94s1.78.92,1.83,1.94h-3.75ZM122.35,36.62c.27-2.19-1.14-4.26-3.45-4.26-2.17,0-3.53,1.78-3.53,3.85,0,2.25,1.28,3.84,3.57,3.84,1.6,0,2.95-.89,3.3-2.49h-1.53c-.28.81-.85,1.22-1.78,1.22-1.34,0-1.96-1.02-1.96-2.16h5.37ZM103.63,39.85h1.68v-7.78h.03l2.8,7.78h1.45l2.8-7.78h.03v7.78h1.68v-10.08h-2.46l-2.71,7.89h-.03l-2.78-7.89h-2.48v10.08ZM94.84,33.75h1.2v6.1h1.61v-6.1h1.37v-1.2h-1.37v-.75c0-.61.35-.76.79-.76.32,0,.54.03.75.08v-1.26c-.26-.07-.62-.1-1.13-.1-1.04,0-2.02.31-2.02,2.18v.61h-1.2v1.2ZM90.79,40.05c2.34,0,3.68-1.61,3.68-3.85s-1.34-3.84-3.68-3.84-3.68,1.61-3.68,3.84,1.34,3.85,3.68,3.85M90.79,38.78c-1.44,0-2.08-1.31-2.08-2.58s.64-2.57,2.08-2.57,2.08,1.31,2.08,2.57-.64,2.58-2.08,2.58"/>
  <path class="cls-2" d="M187.16,17.68c.04-1.09.8-1.94,1.92-1.94s1.78.92,1.84,1.94h-3.76ZM192.52,18.73c.26-2.19-1.15-4.26-3.45-4.26-2.18,0-3.53,1.78-3.53,3.85,0,2.25,1.28,3.84,3.57,3.84,1.6,0,2.95-.89,3.3-2.49h-1.53c-.28.81-.85,1.22-1.78,1.22-1.34,0-1.96-1.02-1.96-2.16h5.37ZM180.72,15.87h1.21v4.31c.03,1.21.34,1.86,2.02,1.86.36,0,.69-.05,1.05-.08v-1.24c-.23.06-.45.06-.68.06-.72,0-.77-.34-.77-1v-3.9h1.46v-1.2h-1.46v-2.19h-1.61v2.19h-1.21v1.2ZM180.01,14.67h-1.61v4.24c0,1.13-.45,1.99-1.79,1.99-.87,0-1.4-.47-1.4-1.75v-4.48h-1.61v4.63c0,1.91.82,2.86,2.72,2.86.8,0,1.68-.48,2.08-1.21h.03v1.01h1.58v-7.3ZM168.42,15.87h1.21v4.31c.03,1.21.34,1.86,2.02,1.86.35,0,.69-.05,1.04-.08v-1.24c-.22.06-.45.06-.68.06-.72,0-.78-.34-.78-1v-3.9h1.45v-1.2h-1.45v-2.19h-1.61v2.19h-1.21v1.2ZM166.05,13.41h1.61v-1.53h-1.61v1.53ZM166.05,21.97h1.61v-7.3h-1.61v7.3ZM160.82,15.87h1.21v4.31c.03,1.21.34,1.86,2.02,1.86.36,0,.69-.05,1.04-.08v-1.24c-.22.06-.45.06-.68.06-.72,0-.78-.34-.78-1v-3.9h1.45v-1.2h-1.45v-2.19h-1.61v2.19h-1.21v1.2ZM154.09,19.63c.03,1.72,1.4,2.54,3.23,2.54,1.51,0,3.26-.63,3.26-2.37,0-1.44-1.19-1.86-2.36-2.13-1.19-.27-2.37-.38-2.37-1.17,0-.63.86-.75,1.33-.75.7,0,1.34.21,1.48.98h1.68c-.2-1.62-1.55-2.25-3.05-2.25-1.33,0-3.05.49-3.05,2.09,0,1.48,1.16,1.91,2.34,2.16,1.17.27,2.34.37,2.39,1.22.04.83-1.01.96-1.62.96-.86,0-1.57-.34-1.65-1.27h-1.61ZM146.63,21.97h1.61v-4.3c0-1.08.69-1.92,1.77-1.92.95,0,1.4.49,1.43,1.64v4.59h1.61v-5.01c0-1.64-1-2.49-2.58-2.49-.96,0-1.79.49-2.28,1.3l-.03-.03v-1.07h-1.52v7.3ZM143.19,21.97h1.77v-10.08h-1.77v10.08ZM136.18,21.97h1.61v-10.08h-1.61v10.08ZM134.66,16.59c0-1.54-1.49-2.12-2.92-2.12-1.61,0-3.21.55-3.32,2.43h1.61c.07-.79.71-1.16,1.61-1.16.65,0,1.51.16,1.51.99,0,.95-1.03.82-2.19,1.03-1.36.15-2.81.45-2.81,2.27,0,1.43,1.18,2.13,2.5,2.13.86,0,1.89-.27,2.53-.89.13.66.59.89,1.24.89.27,0,.78-.1,1.02-.18v-1.12c-.17.03-.3.03-.4.03-.3,0-.38-.16-.38-.55v-3.76ZM133.05,19.51c0,1.02-1.1,1.38-1.81,1.38-.57,0-1.48-.21-1.48-.93,0-.85.62-1.1,1.31-1.21.71-.13,1.48-.11,1.98-.44v1.2ZM120.7,21.97h1.61v-4.3c0-1.08.69-1.92,1.77-1.92.95,0,1.4.49,1.43,1.64v4.59h1.61v-5.01c0-1.64-1-2.49-2.58-2.49-.96,0-1.79.49-2.28,1.3l-.03-.03v-1.07h-1.52v7.3ZM115.92,22.17c2.35,0,3.68-1.61,3.68-3.85s-1.34-3.84-3.68-3.84-3.68,1.61-3.68,3.84,1.34,3.85,3.68,3.85M115.92,20.9c-1.44,0-2.08-1.31-2.08-2.59s.64-2.57,2.08-2.57,2.08,1.31,2.08,2.57-.63,2.59-2.08,2.59M109.47,13.41h1.61v-1.53h-1.61v1.53ZM109.47,21.97h1.61v-7.3h-1.61v7.3ZM104.25,15.87h1.21v4.31c.03,1.21.34,1.86,2.02,1.86.35,0,.69-.05,1.04-.08v-1.24c-.23.06-.45.06-.68.06-.72,0-.78-.34-.78-1v-3.9h1.46v-1.2h-1.46v-2.19h-1.61v2.19h-1.21v1.2ZM103.5,16.59c0-1.54-1.5-2.12-2.92-2.12-1.61,0-3.2.55-3.32,2.43h1.61c.07-.79.71-1.16,1.61-1.16.65,0,1.51.16,1.51.99,0,.95-1.03.82-2.19,1.03-1.36.15-2.81.45-2.81,2.27,0,1.43,1.19,2.13,2.5,2.13.86,0,1.89-.27,2.53-.89.13.66.59.89,1.24.89.27,0,.78-.1,1.02-.18v-1.12c-.17.03-.3.03-.4.03-.29,0-.38-.16-.38-.55v-3.76ZM101.89,19.51c0,1.02-1.1,1.38-1.81,1.38-.56,0-1.48-.21-1.48-.93,0-.85.62-1.1,1.31-1.21.71-.13,1.49-.11,1.98-.44v1.2ZM87.6,21.97h1.68v-7.41h.04l4.59,7.41h1.86v-10.08h-1.68v7.43h-.03l-4.6-7.43h-1.86v10.08Z"/>
</svg>